<?xml version="1.0" standalone="no"?>
<!DOCTYPE svg PUBLIC "-//W3C//DTD SVG 20010904//EN"
 "http://www.w3.org/TR/2001/REC-SVG-20010904/DTD/svg10.dtd">
<svg version="1.0" xmlns="http://www.w3.org/2000/svg"
 width="1612.000000pt" height="1612.000000pt" viewBox="0 0 1612.000000 1612.000000"
 preserveAspectRatio="xMidYMid meet">
<metadata>
Created by potrace 1.11, written by Peter Selinger 2001-2013
</metadata>
<g transform="translate(0.000000,1612.000000) scale(0.100000,-0.100000)"
fill="#000000" stroke="none">
<path d="M6755 14623 c-30 -3 -124 -18 -180 -29 -477 -87 -994 -431 -1480
-985 -25 -28 -97 -120 -99 -126 -1 -1 -21 2 -46 7 -25 5 -65 11 -90 15 -25 3
-56 8 -70 10 -110 17 -411 22 -535 10 -244 -25 -452 -81 -645 -175 -73 -35
-226 -132 -266 -167 -10 -10 -58 -50 -105 -89 -165 -139 -334 -322 -433 -469
-25 -38 -51 -75 -56 -82 -15 -18 -126 -242 -155 -311 -48 -118 -95 -254 -156
-456 -33 -111 -63 -204 -67 -207 -4 -3 -38 -11 -77 -18 -96 -17 -262 -73 -370
-126 -76 -38 -238 -136 -255 -154 -3 -3 -37 -32 -77 -64 -81 -66 -200 -188
-268 -277 -145 -189 -278 -491 -361 -820 -28 -113 -28 -113 -39 -180 -4 -25
-9 -54 -11 -65 -2 -11 -6 -40 -9 -65 -3 -25 -8 -54 -10 -65 -8 -39 -18 -241
-18 -345 1 -118 10 -263 23 -360 5 -36 10 -70 10 -77 0 -10 20 -24 135 -88 22
-13 197 -114 390 -225 192 -111 366 -211 385 -221 19 -11 51 -29 70 -40 46
-28 640 -368 705 -403 28 -16 55 -32 60 -36 6 -4 35 -21 65 -38 30 -16 111
-62 178 -101 68 -39 128 -71 133 -71 5 0 9 -4 9 -10 0 -5 4 -10 10 -10 8 0
165 -86 220 -121 20 -12 460 -263 530 -301 30 -17 84 -48 120 -68 89 -52 811
-450 815 -450 2 0 45 -24 97 -53 51 -30 122 -70 158 -89 61 -33 334 -182 410
-225 19 -11 71 -39 115 -63 44 -24 114 -62 155 -85 91 -51 166 -93 240 -132
30 -17 98 -54 150 -83 376 -209 678 -311 749 -252 40 32 33 106 -28 292 -38
113 -119 321 -168 430 -14 30 -42 93 -63 140 -48 108 -153 323 -182 375 -13
22 -35 60 -49 85 -15 25 -36 61 -46 80 -74 132 -374 659 -409 719 -24 40 -44
75 -44 78 0 2 -24 45 -54 96 -30 51 -64 110 -76 132 -74 134 -376 666 -396
697 -13 21 -24 40 -24 43 0 3 -10 22 -23 43 -13 20 -37 62 -54 92 -16 30 -68
123 -115 205 -47 83 -96 168 -108 190 -12 22 -70 123 -128 225 -131 231 -426
750 -460 810 -14 25 -33 59 -42 75 -10 17 -34 59 -54 93 -20 35 -36 66 -36 68
0 3 -8 17 -19 32 -10 15 -45 74 -77 132 -33 57 -64 114 -71 125 -16 27 -285
567 -313 630 -183 401 -279 669 -282 780 -1 52 6 63 42 68 64 11 159 -68 324
-268 116 -140 217 -291 310 -460 11 -19 160 -270 473 -793 73 -123 133 -226
133 -228 0 -2 15 -28 34 -57 34 -52 395 -657 496 -832 10 -16 129 -217 265
-445 136 -228 255 -428 265 -445 26 -45 319 -538 330 -555 12 -19 25 -41 269
-450 113 -190 211 -354 217 -365 85 -157 454 -717 607 -921 130 -173 266 -326
331 -371 81 -55 125 -40 168 57 22 50 62 216 73 300 4 30 9 62 10 70 2 8 6 51
10 95 4 44 9 87 10 95 2 8 6 69 9 135 4 66 9 147 11 180 5 68 12 530 20 1240
3 264 7 651 10 860 3 209 7 598 10 865 3 267 8 647 10 845 2 198 7 599 10 890
5 526 12 809 20 915 2 30 7 98 11 150 3 52 7 102 9 110 2 8 6 47 10 85 4 39 9
79 11 90 2 10 6 37 9 60 19 129 74 299 111 344 104 124 209 -30 250 -364 3
-27 8 -61 10 -75 2 -14 6 -68 10 -120 3 -52 8 -111 10 -130 7 -68 14 -482 19
-1210 3 -404 8 -897 10 -1095 4 -358 11 -1046 20 -1955 15 -1511 17 -1641 30
-1790 3 -36 8 -92 10 -125 3 -33 7 -71 9 -85 2 -14 7 -50 11 -80 11 -91 44
-222 70 -277 56 -124 167 -118 312 18 121 113 201 221 370 504 50 83 142 236
205 340 63 105 277 458 475 785 331 547 386 639 420 695 30 51 546 903 605
1000 69 113 241 399 268 444 51 87 126 211 145 241 13 19 103 168 200 330 98
162 234 387 303 500 69 113 134 220 144 239 11 19 35 59 54 88 19 29 34 56 34
59 0 19 340 515 412 600 155 184 238 254 299 254 97 0 65 -200 -89 -550 -69
-158 -206 -432 -287 -575 -34 -60 -77 -137 -95 -170 -18 -33 -49 -89 -70 -125
-47 -82 -84 -147 -128 -230 -20 -36 -55 -98 -79 -138 -24 -41 -43 -75 -43 -77
0 -2 -13 -26 -28 -52 -16 -26 -44 -77 -64 -113 -20 -36 -96 -171 -168 -300
-73 -129 -146 -260 -163 -290 -17 -30 -102 -183 -190 -340 -88 -157 -220 -393
-294 -525 -73 -132 -140 -251 -149 -265 -8 -14 -29 -51 -47 -83 -18 -33 -39
-71 -47 -85 -30 -52 -166 -296 -292 -522 -14 -25 -201 -358 -415 -740 -215
-382 -413 -738 -442 -790 -29 -52 -56 -102 -61 -110 -18 -30 -61 -124 -95
-209 -85 -214 -92 -367 -16 -405 78 -39 306 29 726 216 171 77 738 356 822
406 28 17 77 45 109 63 83 46 615 346 654 369 31 19 231 131 272 154 24 12
113 63 198 111 85 48 173 97 195 109 22 12 41 24 43 29 2 4 7 7 12 7 4 0 102
53 217 118 114 65 233 132 263 149 30 17 105 59 165 93 61 35 130 74 155 88
25 14 77 43 115 65 95 54 170 97 370 209 94 52 233 131 310 175 77 44 160 91
185 105 25 14 149 84 275 155 246 139 241 136 475 268 85 48 158 90 162 94 14
13 20 96 23 331 3 221 -8 412 -29 523 -3 15 -10 53 -16 85 -6 31 -12 66 -14
77 -4 20 -53 200 -60 220 -68 205 -186 426 -298 559 -204 242 -465 400 -793
481 -38 10 -71 18 -72 19 -1 1 -18 64 -38 141 -42 160 -124 413 -185 565 -50
127 -175 386 -230 476 -22 36 -40 68 -40 71 0 5 -121 185 -130 193 -3 3 -27
32 -52 66 -127 166 -293 308 -470 402 -137 72 -405 166 -528 185 -19 3 -62 10
-95 16 -186 32 -492 45 -653 28 -52 -5 -53 -5 -76 31 -191 304 -321 475 -477
631 -232 231 -505 392 -856 504 -134 43 -307 80 -428 93 -33 3 -71 8 -85 10
-37 6 -324 5 -405 -1 -93 -8 -291 -41 -390 -66 -176 -45 -390 -132 -540 -221
l-59 -36 -41 27 c-138 94 -345 203 -500 264 -87 34 -264 91 -315 102 -14 2
-47 9 -75 15 -141 30 -243 39 -409 38 -89 -1 -174 -3 -191 -5z"/>
<path d="M632 8490 c-43 -76 -133 -256 -177 -355 -39 -89 -114 -311 -130 -388
-2 -10 -6 -26 -9 -35 -3 -9 -8 -33 -11 -52 -3 -19 -10 -51 -15 -70 -4 -19 -13
-75 -20 -125 -6 -49 -13 -106 -16 -125 -11 -82 -3 -418 11 -470 2 -8 7 -37 10
-65 11 -88 70 -308 105 -390 33 -80 54 -115 76 -131 25 -18 293 -226 363 -282
19 -15 91 -71 160 -125 69 -54 140 -108 156 -121 138 -109 272 -213 354 -276
150 -116 763 -594 791 -617 8 -7 58 -45 110 -85 l96 -73 984 1 c863 1 1232 6
1495 19 190 9 367 20 485 30 30 3 84 7 120 10 36 3 85 7 110 10 25 3 70 7 100
10 52 5 168 19 262 31 103 13 261 81 293 127 27 39 19 81 -23 118 -236 210
-824 611 -1396 954 -153 92 -1105 666 -1155 696 -34 21 -64 39 -65 39 -2 0
-159 95 -351 210 -191 116 -352 210 -356 210 -5 0 -9 4 -9 9 0 5 -8 11 -17 15
-10 3 -112 63 -228 133 -115 71 -325 197 -465 282 -140 85 -428 260 -640 389
-212 129 -397 242 -411 251 -15 9 -67 41 -115 71 -49 30 -97 60 -107 65 -9 6
-79 49 -155 96 -75 47 -142 89 -148 92 -6 4 -32 -31 -62 -83z"/>
<path d="M14579 7905 c-360 -217 -661 -398 -669 -402 -8 -4 -62 -36 -120 -71
-58 -36 -118 -73 -135 -82 -16 -9 -320 -192 -675 -405 -355 -213 -658 -395
-675 -405 -26 -15 -876 -525 -915 -549 -8 -6 -163 -99 -345 -208 -181 -109
-332 -200 -335 -204 -3 -3 -15 -12 -28 -18 -59 -31 -361 -248 -482 -346 -112
-92 -190 -182 -190 -222 0 -15 17 -41 48 -71 37 -38 63 -53 127 -74 83 -28
154 -44 240 -53 28 -3 64 -7 80 -10 35 -5 166 -14 285 -20 47 -3 285 -7 530
-10 573 -6 1212 -14 1660 -20 1061 -16 1020 -16 1051 5 15 11 29 20 32 20 3 0
38 22 79 48 68 45 387 248 443 282 33 20 511 322 595 375 36 23 135 86 220
140 85 54 162 105 172 114 32 31 152 375 174 499 3 15 10 47 15 72 6 25 12 59
15 75 2 17 6 40 8 53 3 13 8 53 12 90 3 37 8 81 10 97 5 42 4 332 0 380 -30
296 -96 534 -216 780 -74 151 -190 332 -293 457 l-64 77 -654 -394z"/>
<path d="M3371 4172 l-144 -3 384 -287 c212 -158 490 -366 619 -462 129 -96
242 -180 250 -187 14 -11 252 -188 392 -291 31 -23 60 -42 63 -42 9 0 1060
704 1063 713 2 4 7 7 12 7 9 0 212 139 245 168 38 33 85 100 91 131 20 97 -87
163 -316 196 -25 3 -56 8 -70 10 -14 2 -62 7 -107 10 -46 3 -111 7 -145 10
-71 5 -214 12 -458 21 -170 6 -1622 11 -1879 6z"/>
<path d="M12757 4174 c-1 -1 -218 -5 -482 -9 -499 -7 -628 -9 -1080 -20 -480
-12 -758 -22 -830 -31 -22 -2 -58 -6 -79 -9 -22 -2 -64 -12 -95 -21 -147 -43
-189 -100 -142 -192 29 -56 76 -96 326 -275 127 -91 257 -185 290 -209 128
-95 516 -374 543 -390 27 -17 29 -16 72 11 25 16 110 69 190 118 222 137 596
369 890 551 146 90 279 172 295 182 55 32 460 283 468 290 4 3 -76 6 -179 6
-102 -1 -186 -2 -187 -2z"/>
<path d="M9543 3149 c-28 -10 -33 -21 -35 -71 -4 -127 135 -458 364 -866 l30
-53 31 20 c34 20 528 311 682 401 125 73 121 68 72 94 -23 13 -73 40 -112 61
-234 129 -581 294 -750 358 -132 50 -240 72 -282 56z"/>
<path d="M6699 3136 c-2 -2 -20 -7 -39 -10 -19 -3 -53 -12 -76 -20 -43 -15
-1143 -562 -1157 -575 -18 -18 507 -290 733 -379 173 -69 290 -106 299 -96 5
5 25 56 46 114 34 96 87 231 120 305 70 160 117 259 172 363 36 68 71 142 78
165 17 58 1 105 -42 123 -30 13 -124 20 -134 10z"/>
<path d="M8657 2571 c-36 -36 -64 -104 -84 -201 -10 -49 -31 -230 -38 -320 -4
-69 -9 -290 -6 -317 1 -14 232 -11 311 5 30 7 66 13 80 16 122 20 390 116 390
139 0 9 -188 295 -227 345 -148 191 -256 308 -313 337 -51 26 -86 25 -113 -4z"/>
<path d="M7589 2561 c-63 -40 -69 -48 -294 -367 l-203 -289 27 -16 c79 -48
301 -109 486 -134 28 -4 61 -9 75 -11 67 -11 182 -16 178 -8 -3 5 -9 40 -13
79 -4 38 -8 72 -10 75 -1 3 -6 37 -9 75 -4 39 -9 84 -11 100 -2 17 -7 55 -10
85 -13 108 -15 125 -20 160 -3 19 -7 58 -10 85 -18 183 -78 236 -186 166z"/>
</g>
</svg>
