<?xml version="1.0" standalone="no"?><!-- Generator: Gravit.io --><svg xmlns="http://www.w3.org/2000/svg" xmlns:xlink="http://www.w3.org/1999/xlink" style="isolation:isolate" viewBox="0 0 512 512" width="512" height="512"><path d=" M 57.753 256 C 57.753 146.585 146.585 57.753 256 57.753 C 365.415 57.753 454.247 146.585 454.247 256 C 454.247 365.415 365.415 454.247 256 454.247 C 146.585 454.247 57.753 365.415 57.753 256 Z " fill="rgb(255,202,40)"/><g id="null"><path d=" M 97.83 256 C 97.83 153.275 175.962 68.801 276.039 58.755 C 269.449 58.094 262.764 57.752 256 57.752 C 146.51 57.752 57.752 146.511 57.752 256 C 57.752 365.49 146.51 454.248 256 454.248 C 262.764 454.248 269.449 453.906 276.039 453.245 C 175.961 443.2 97.83 358.725 97.83 256 Z " fill="rgb(221,133,0)"/><path d=" M 256 41.08 C 251.85 41.08 248.485 37.715 248.485 33.565 L 248.485 7.515 C 248.485 3.365 251.85 0 256 0 C 260.15 0 263.515 3.365 263.515 7.515 L 263.515 33.566 C 263.515 37.716 260.15 41.08 256 41.08 Z " fill="rgb(255,202,40)"/><path d=" M 341.239 58.063 C 340.279 58.063 339.304 57.878 338.362 57.487 C 334.529 55.897 332.71 51.499 334.301 47.666 L 344.284 23.604 C 345.874 19.771 350.272 17.952 354.105 19.543 C 357.938 21.133 359.757 25.531 358.166 29.364 L 348.183 53.426 C 346.983 56.319 344.186 58.063 341.239 58.063 Z " fill="rgb(255,202,40)"/><path d=" M 413.469 106.414 C 411.543 106.414 409.617 105.679 408.149 104.207 C 405.217 101.269 405.223 96.511 408.161 93.579 L 426.603 75.18 C 429.541 72.249 434.299 72.254 437.231 75.192 C 440.163 78.13 440.157 82.888 437.219 85.82 L 418.777 104.219 C 417.309 105.681 415.388 106.414 413.469 106.414 Z " fill="rgb(255,202,40)"/><path d=" M 461.654 178.754 C 458.7 178.754 455.899 177.002 454.703 174.101 C 453.122 170.264 454.95 165.871 458.787 164.29 L 482.872 154.363 C 486.708 152.781 491.101 154.61 492.683 158.447 C 494.264 162.284 492.436 166.677 488.599 168.258 L 464.514 178.185 C 463.578 178.572 462.609 178.754 461.654 178.754 Z " fill="rgb(255,202,40)"/><path d=" M 504.485 263.804 C 504.482 263.804 504.479 263.804 504.476 263.804 L 478.425 263.774 C 474.275 263.769 470.914 260.4 470.919 256.25 C 470.924 252.1 474.263 248.737 478.443 248.744 L 504.494 248.774 C 508.644 248.779 512.005 252.148 512 256.298 C 511.995 260.446 508.631 263.804 504.485 263.804 Z " fill="rgb(255,202,40)"/><path d=" M 485.289 359.277 C 484.324 359.277 483.342 359.09 482.396 358.695 L 458.357 348.655 C 454.528 347.056 452.719 342.654 454.319 338.825 C 455.918 334.996 460.32 333.187 464.149 334.787 L 488.188 344.827 C 492.017 346.426 493.826 350.828 492.226 354.657 C 491.022 357.539 488.23 359.277 485.289 359.277 Z " fill="rgb(255,202,40)"/><path d=" M 431.09 439.834 C 429.158 439.834 427.226 439.094 425.758 437.615 L 407.401 419.13 C 404.476 416.185 404.493 411.427 407.438 408.502 C 410.383 405.577 415.141 405.594 418.065 408.539 L 436.422 427.024 C 439.347 429.969 439.33 434.727 436.385 437.652 C 434.919 439.107 433.005 439.834 431.09 439.834 Z " fill="rgb(255,152,0)"/><path d=" M 431.295 439.63 C 429.366 439.63 427.437 438.892 425.969 437.417 L 407.591 418.953 C 404.663 416.011 404.674 411.253 407.616 408.325 C 410.557 405.397 415.315 405.408 418.244 408.35 L 436.622 426.814 C 439.55 429.756 439.539 434.514 436.597 437.442 C 435.131 438.9 433.213 439.63 431.295 439.63 Z " fill="rgb(255,202,40)"/><path d=" M 350.156 493.474 C 347.196 493.474 344.39 491.714 343.199 488.805 L 333.328 464.697 C 331.755 460.856 333.595 456.468 337.435 454.895 C 341.276 453.323 345.664 455.162 347.236 459.002 L 357.107 483.11 C 358.68 486.951 356.84 491.339 353 492.912 C 352.07 493.292 351.105 493.474 350.156 493.474 Z " fill="rgb(255,152,0)"/><path d=" M 350.424 493.364 C 347.467 493.364 344.663 491.608 343.47 488.703 L 333.571 464.606 C 331.994 460.767 333.828 456.377 337.667 454.8 C 341.506 453.223 345.896 455.057 347.473 458.895 L 357.372 482.992 C 358.949 486.831 357.115 491.221 353.276 492.798 C 352.343 493.181 351.375 493.364 350.424 493.364 Z " fill="rgb(255,202,40)"/><path d=" M 170.762 58.063 C 167.814 58.063 165.018 56.318 163.818 53.426 L 153.834 29.364 C 152.244 25.531 154.061 21.134 157.895 19.543 C 161.728 17.953 166.125 19.77 167.716 23.604 L 177.7 47.666 C 179.29 51.499 177.473 55.896 173.639 57.487 C 172.696 57.879 171.72 58.063 170.762 58.063 Z " fill="rgb(255,202,40)"/><path d=" M 50.346 178.754 C 49.392 178.754 48.422 178.572 47.485 178.185 L 23.4 168.258 C 19.563 166.677 17.734 162.284 19.316 158.447 C 20.897 154.61 25.29 152.781 29.127 154.363 L 53.212 164.29 C 57.049 165.871 58.878 170.264 57.296 174.101 C 56.102 177.002 53.3 178.754 50.346 178.754 Z " fill="rgb(255,202,40)"/><path d=" M 26.711 359.277 C 23.77 359.277 20.978 357.54 19.773 354.656 C 18.174 350.827 19.981 346.425 23.811 344.826 L 47.85 334.786 C 51.679 333.187 56.081 334.994 57.68 338.824 C 59.279 342.653 57.472 347.055 53.642 348.654 L 29.603 358.694 C 28.658 359.089 27.676 359.277 26.711 359.277 Z " fill="rgb(255,202,40)"/><path d=" M 161.576 493.364 C 160.625 493.364 159.658 493.183 158.723 492.798 C 154.884 491.221 153.05 486.83 154.627 482.992 L 164.526 458.895 C 166.103 455.057 170.493 453.222 174.332 454.8 C 178.172 456.377 180.005 460.768 178.428 464.606 L 168.529 488.703 C 167.337 491.607 164.532 493.364 161.576 493.364 Z " fill="rgb(255,202,40)"/><path d=" M 256 512 C 251.85 512 248.485 508.635 248.485 504.485 L 248.485 478.434 C 248.485 474.284 251.85 470.919 256 470.919 C 260.15 470.919 263.515 474.284 263.515 478.434 L 263.515 504.485 C 263.515 508.635 260.15 512 256 512 Z " fill="rgb(255,202,40)"/><path d=" M 80.295 439.22 C 78.372 439.22 76.448 438.487 74.982 437.019 C 72.047 434.084 72.047 429.326 74.982 426.391 L 93.403 407.97 C 96.338 405.035 101.096 405.035 104.03 407.97 C 106.965 410.905 106.965 415.663 104.03 418.598 L 85.609 437.019 C 84.141 438.486 82.218 439.22 80.295 439.22 Z " fill="rgb(255,202,40)"/><path d=" M 33.566 263.515 L 7.515 263.515 C 3.365 263.515 0 260.15 0 256 C 0 251.85 3.365 248.485 7.515 248.485 L 33.566 248.485 C 37.716 248.485 41.081 251.85 41.081 256 C 41.08 260.15 37.716 263.515 33.566 263.515 Z " fill="rgb(255,202,40)"/><path d=" M 98.715 106.229 C 96.791 106.229 94.868 105.496 93.402 104.028 L 74.98 85.608 C 72.045 82.673 72.045 77.915 74.98 74.98 C 77.915 72.045 82.673 72.045 85.607 74.98 L 104.028 93.401 C 106.963 96.336 106.963 101.094 104.028 104.029 C 102.562 105.496 100.639 106.229 98.715 106.229 Z " fill="rgb(255,202,40)"/></g><path d=" M 458.062 170.5 L 53.938 170.5 C 45.453 170.5 38.575 177.378 38.575 185.863 L 38.575 185.863 C 38.575 194.348 45.453 201.226 53.938 201.226 L 98.714 201.226 L 98.714 225.825 C 98.714 259.275 125.831 286.392 159.281 286.392 L 159.281 286.392 C 192.731 286.392 219.848 259.275 219.848 225.825 L 219.848 201.226 L 292.146 201.226 L 292.146 225.825 C 292.146 259.275 319.263 286.392 352.713 286.392 L 352.713 286.392 C 386.163 286.392 413.28 259.275 413.28 225.825 L 413.28 201.226 L 458.056 201.226 C 466.541 201.226 473.419 194.348 473.419 185.863 L 473.419 185.863 C 473.425 177.378 466.546 170.5 458.062 170.5 Z " fill="rgb(239,73,91)"/><g id="null"><path d=" M 159.283 261.343 C 139.698 261.343 123.765 245.41 123.765 225.825 L 123.765 201.227 L 194.803 201.227 L 194.803 225.825 C 194.801 245.41 178.868 261.343 159.283 261.343 Z " fill="rgb(143,229,247)"/><path d=" M 352.717 261.343 C 372.302 261.343 388.235 245.41 388.235 225.825 L 388.235 201.227 L 317.197 201.227 L 317.197 225.825 C 317.199 245.41 333.133 261.343 352.717 261.343 Z " fill="rgb(143,229,247)"/></g><path d=" M 300.494 316.12 C 305.899 308.85 306.164 298.624 300.451 291.015 C 293.49 281.748 280.354 279.868 271.089 286.827 C 270.208 287.434 265.061 289.705 255.995 289.705 C 246.928 289.705 241.783 287.437 240.935 286.852 C 231.67 279.895 218.516 281.762 211.557 291.028 C 205.804 298.688 206.101 308.995 211.606 316.273 L 211.606 316.273 L 300.388 316.273 L 300.388 316.27 L 300.388 316.27 L 300.494 316.12 L 300.494 316.12 Z " fill="rgb(33,33,33)"/><path d=" M 256 308.879 C 238.516 308.879 222.757 311.723 211.604 316.273 C 212.758 317.799 214.126 319.201 215.732 320.407 C 225.262 327.564 239.936 331.669 255.994 331.669 C 272.052 331.669 286.727 327.564 296.257 320.406 C 297.863 319.2 299.232 317.797 300.387 316.27 C 289.236 311.721 273.48 308.879 256 308.879 Z " fill="rgb(239,83,80)"/></svg>